<?xml version="1.0" encoding="utf-8"?>
<!-- Generator: Adobe Illustrator 15.0.0, SVG Export Plug-In . SVG Version: 6.00 Build 0)  -->
<!DOCTYPE svg PUBLIC "-//W3C//DTD SVG 1.1//EN" "http://www.w3.org/Graphics/SVG/1.1/DTD/svg11.dtd">
<svg version="1.1" id="Capa_1" xmlns="http://www.w3.org/2000/svg" xmlns:xlink="http://www.w3.org/1999/xlink" x="0px" y="0px"
	 width="279.596px" height="279.585px" viewBox="0 0 279.596 279.585" enable-background="new 0 0 279.596 279.585"
	 xml:space="preserve">
<g>
	<path d="M238.265,0H41.332C18.539,0,0,18.539,0,41.332v196.921c0,22.795,18.539,41.333,41.332,41.333h196.933
		c22.793,0,41.331-18.537,41.331-41.333V41.343C279.596,18.551,261.058,0,238.265,0z M255.284,238.265
		c0,9.385-7.634,17.02-17.019,17.02H41.332c-9.385,0-17.019-7.635-17.019-17.02V41.343c0-9.384,7.634-17.018,17.019-17.018h196.933
		c9.385,0,17.019,7.634,17.019,17.018V238.265z"/>
	<circle cx="72.938" cy="72.939" r="24.313"/>
	<circle cx="206.658" cy="72.939" r="24.313"/>
	<circle cx="72.938" cy="206.658" r="24.313"/>
	<circle cx="206.658" cy="206.658" r="24.313"/>
	<circle cx="139.798" cy="143.858" r="24.313"/>
</g>
</svg>
