<?xml version="1.0" encoding="utf-8"?>
<!-- Generator: Adobe Illustrator 15.0.0, SVG Export Plug-In . SVG Version: 6.00 Build 0)  -->
<!DOCTYPE svg PUBLIC "-//W3C//DTD SVG 1.1//EN" "http://www.w3.org/Graphics/SVG/1.1/DTD/svg11.dtd">
<svg version="1.1" id="Capa_1" xmlns="http://www.w3.org/2000/svg" xmlns:xlink="http://www.w3.org/1999/xlink" x="0px" y="0px"
	 width="581px" height="478.269px" viewBox="0 0 581 478.269" enable-background="new 0 0 581 478.269" xml:space="preserve">
<g>
	<path d="M238.265,199.684H41.332C18.539,199.684,0,218.223,0,241.016v196.921c0,22.795,18.539,41.332,41.332,41.332h196.933
		c22.793,0,41.331-18.537,41.331-41.332v-196.91C279.596,218.235,261.058,199.684,238.265,199.684z M255.284,437.949
		c0,9.385-7.634,17.02-17.019,17.02H41.332c-9.385,0-17.019-7.635-17.019-17.02V241.027c0-9.384,7.634-17.018,17.019-17.018h196.933
		c9.385,0,17.019,7.634,17.019,17.018V437.949z"/>
	<circle cx="72.938" cy="272.623" r="24.313"/>
	<circle cx="206.658" cy="272.623" r="24.313"/>
	<circle cx="72.938" cy="406.342" r="24.313"/>
	<circle cx="206.658" cy="406.342" r="24.313"/>
	<path d="M578.702,214.722l-64.756-185.98C506.432,7.225,482.899-4.19,461.321,3.298L275.328,68.055
		c-21.529,7.513-32.932,31.132-25.431,52.625l64.758,185.993c3.635,10.418,11.098,18.806,21.029,23.606
		c5.701,2.761,11.816,4.146,17.967,4.146c4.584,0,9.18-0.766,13.629-2.321l185.979-64.757
		C574.776,259.858,586.19,236.25,578.702,214.722z M545.272,244.382L359.28,309.14c-4.305,1.496-8.91,1.253-12.994-0.753
		c-4.098-1.981-7.174-5.423-8.668-9.726L272.86,112.669c-3.088-8.862,1.617-18.575,10.467-21.663L469.319,26.25
		c1.848-0.632,3.721-0.936,5.566-0.936c7.051,0,13.652,4.413,16.098,11.427l64.756,185.968
		C558.838,231.57,554.135,241.294,545.272,244.382z"/>
	<circle cx="329.168" cy="126.552" r="24.313"/>
	<circle cx="455.45" cy="82.582" r="24.313"/>
	<circle cx="373.151" cy="252.832" r="24.313"/>
	<circle cx="139.798" cy="343.542" r="24.313"/>
	<circle cx="499.43" cy="208.862" r="24.313"/>
</g>
<path fill-rule="evenodd" clip-rule="evenodd" d="M157.791,70.012c-3.333,3.333-5,7.333-5,12v124.5h-24.35v-124.5
	c0-11.4,4.05-21.133,12.15-29.2c8.066-8.1,17.8-12.15,29.2-12.15h196.95l-71.425,24.35H169.791
	C165.091,65.012,161.091,66.679,157.791,70.012z"/>
<path fill-rule="evenodd" clip-rule="evenodd" d="M268.241,160.212c6.733,0,12.467,2.384,17.2,7.149
	c4.767,4.734,7.149,10.467,7.149,17.2c0,6.7-2.383,12.434-7.149,17.2c-4.733,4.733-10.467,7.1-17.2,7.1
	c-6.7,0-12.416-2.366-17.15-7.1c-4.766-4.767-7.149-10.5-7.149-17.2c0-6.733,2.383-12.466,7.149-17.2
	C255.825,162.596,261.541,160.212,268.241,160.212z"/>
</svg>
