<?xml version="1.0" encoding="utf-8"?>
<!-- Generator: Adobe Illustrator 15.0.0, SVG Export Plug-In . SVG Version: 6.00 Build 0)  -->
<!DOCTYPE svg PUBLIC "-//W3C//DTD SVG 1.1//EN" "http://www.w3.org/Graphics/SVG/1.1/DTD/svg11.dtd">
<svg version="1.1" id="Capa_1" xmlns="http://www.w3.org/2000/svg" xmlns:xlink="http://www.w3.org/1999/xlink" x="0px" y="0px"
	 width="523.433px" height="522.309px" viewBox="-0.002 108.757 523.433 522.309"
	 enable-background="new -0.002 108.757 523.433 522.309" xml:space="preserve">
<g>
	<g>
		<path fill="#010002" d="M373.734,424.377c42.488-27.084,87.126-50.493,133.913-69.533c27.916-11.362,15.721-57.278-12.611-45.737
			c-44.261,18.01-86.749,39.041-127.464,63.47c-0.327-0.357-0.614-0.713-0.961-1.06c-9.816-9.688-24.835-14.215-38.684-12.323
			c-15.87-42.488-40.418-80.637-70.701-115.131c-20.209-23.032-53.623,10.649-33.533,33.533
			c29.134,33.206,51.404,70.275,64.5,112.08c-13.423,15.444-26.875,30.878-40.408,46.232
			c-18.059-17.802-39.288-32.255-63.509-42.567c-46.124-19.634-87.304,57.11-103.808,89.702c-4.666,9.202-4.29,18.099-0.961,25.538
			c-26.143,13.017-50.334,31.165-71.474,54.425c-25.677,28.213,16.137,70.256,41.913,41.894
			c50.482-55.455,116.835-73.97,188.556-51.651c16.078,5.013,28.084-3.239,33.434-15.018c4.468-2.13,8.579-5.072,11.986-8.976
			c27.688-31.591,55.624-63.004,83.015-94.862C369.613,431.281,371.862,427.903,373.734,424.377z M209.864,486.618
			c-21.823-2.695-43.389-2.338-64.351,0.921c7.549-12.531,16.187-24.082,27.203-33.89c14.552,8.104,27.292,17.782,38.238,29.58
			C210.548,484.359,210.182,485.479,209.864,486.618z"/>
		<circle fill="#010002" cx="374.992" cy="301.35" r="45.618"/>
		<path fill="#010002" d="M464.208,141.873l-10.085,88.622c22.924,2.605,43.776-15.107,46.56-39.586
			C503.477,166.451,487.161,144.499,464.208,141.873z"/>
		<path fill="#010002" d="M448.973,108.767c-1.298-0.148-2.536,1.466-2.765,3.616l-16.275,142.799
			c-0.238,2.14,0.604,3.992,1.862,4.141l16.89-26.569l10.521-92.356L448.973,108.767z"/>
		<path fill="#010002" d="M343.441,550.895h-2.972v11.849h2.972c51.761,0,93.882-42.102,93.882-93.872v-2.981h-11.848v2.981
			C425.456,514.123,388.674,550.895,343.441,550.895z"/>
		<path fill="#010002" d="M493.75,452.09c0,92.158-74.972,167.129-167.129,167.129h-2.963v11.848h2.963
			c98.686,0,178.986-80.28,178.986-178.977v-2.972H493.75V452.09z"/>
	</g>
</g>
</svg>
