<?xml version="1.0" encoding="iso-8859-1"?>
<!-- Generator: Adobe Illustrator 16.0.0, SVG Export Plug-In . SVG Version: 6.00 Build 0)  -->
<!DOCTYPE svg PUBLIC "-//W3C//DTD SVG 1.1//EN" "http://www.w3.org/Graphics/SVG/1.1/DTD/svg11.dtd">
<svg version="1.1" id="Capa_1" xmlns="http://www.w3.org/2000/svg" xmlns:xlink="http://www.w3.org/1999/xlink" x="0px" y="0px"
	 width="166.928px" height="166.928px" viewBox="0 0 166.928 166.928" style="enable-background:new 0 0 166.928 166.928;"
	 xml:space="preserve">
<g>
	<g>
		<g>
			<path d="M53.018,70.037L44.4,54.125c-0.921-1.699-3.045-2.33-4.745-1.41c-1.7,0.92-2.331,3.045-1.411,4.744l8.667,16
				c0.042,0.077,0.086,0.152,0.134,0.227c0.183,0.284,17.619,29.027-38.807,82.908c-1.398,1.335-1.555,3.66-0.114,4.947
				c2.071,1.854,4.271,0.763,4.948,0.115C72.28,105.12,54.652,72.724,53.018,70.037z"/>
			<path d="M61.8,103.461c-1.652-0.996-3.797-0.471-4.798,1.182c-1.002,1.646-0.478,3.799,1.169,4.807
				c1.083,0.66,26.446,16.578,19.725,48.966c-0.393,1.893,0.855,3.612,2.715,4.138c0.918,0.26,3.47,0.623,4.138-2.716
				C92.229,122.456,62.107,103.649,61.8,103.461z"/>
			<path d="M166.576,22.758c-1.545-7.189-8.002-12.681-15.344-12.408c-11.246,0.418-16.531,9.567-15.615,17.5
				C98.443,36.102,9.84,46.21,8.927,46.314c-1.184,0.135-2.218,0.862-2.745,1.932c-0.526,1.068-0.473,2.332,0.143,3.354
				l27.333,45.333c0.658,1.091,2.205,2.546,4.805,1.188c1.714-0.895,2.188-3.147,1.19-4.805L15.129,52.644
				c20.238-2.368,90.669-10.873,122.863-18.15c2.494,3.65,8.494,8.775,16.527,6.921C162.96,39.465,168.396,31.224,166.576,22.758z
				 M153.05,34.569c-0.608,0.131-1.228,0.197-1.84,0.197h-0.002c-4.068-0.001-7.899-2.848-8.502-6.88
				c-1.47-9.869,7.914-10.537,8.526-10.537c4.068,0,7.644,2.893,8.5,6.879C160.74,28.921,157.742,33.561,153.05,34.569z"/>
			<path d="M40.882,30.635c0,0,45.656,3.005,45.733,3.008c2.121,0.084,3.367-1.419,3.488-3.27c0.127-1.929-1.332-3.596-3.262-3.723
				l-45.501-3c-1.925-0.145-3.596,1.333-3.723,3.262C37.491,28.841,38.953,30.508,40.882,30.635z"/>
		</g>
		<path d="M16.585,37.382c9.144,0,16.582-7.438,16.582-16.582c0-9.146-7.438-16.585-16.582-16.585C7.439,4.215,0,11.653,0,20.8
			C0,29.943,7.44,37.382,16.585,37.382z M16.585,11.396c5.184,0,9.401,4.219,9.401,9.404s-4.218,9.401-9.401,9.401
			c-5.187,0-9.404-4.217-9.404-9.401C7.181,15.615,11.399,11.396,16.585,11.396z"/>
	</g>
</g>
<g>
</g>
<g>
</g>
<g>
</g>
<g>
</g>
<g>
</g>
<g>
</g>
<g>
</g>
<g>
</g>
<g>
</g>
<g>
</g>
<g>
</g>
<g>
</g>
<g>
</g>
<g>
</g>
<g>
</g>
</svg>
