<?xml version="1.0" encoding="utf-8"?>
<!-- Generator: Adobe Illustrator 15.0.0, SVG Export Plug-In . SVG Version: 6.00 Build 0)  -->
<!DOCTYPE svg PUBLIC "-//W3C//DTD SVG 1.1//EN" "http://www.w3.org/Graphics/SVG/1.1/DTD/svg11.dtd">
<svg version="1.1" id="Layer_1" xmlns="http://www.w3.org/2000/svg" xmlns:xlink="http://www.w3.org/1999/xlink" x="0px" y="0px"
	 width="612px" height="792px" viewBox="0 0 612 792" enable-background="new 0 0 612 792" xml:space="preserve">
<g transform="translate(1 1)">
	<g>
		<path fill="#FCC309" d="M176.797,749.67H91.188c-9.784,0-18.345-7.339-18.345-17.123v-13.453c0-9.786,8.561-18.346,18.345-18.346
			h86.832c9.784,0,18.344,8.56,18.344,18.346v13.453C195.14,742.331,186.581,749.67,176.797,749.67"/>
		<path fill="#FCC309" d="M138.883,92.92l-4.892-52.588l-4.893,52.588c-4.892,46.474-7.338,95.394-7.338,143.09v73.381h24.461
			V236.01C146.221,188.314,143.775,139.393,138.883,92.92"/>
	</g>
	<path fill="#FFFFFF" d="M97.301,236.01v73.381h24.459V236.01c0-48.92,2.447-96.616,7.338-143.088l4.893-52.589l-15.898,52.589
		C104.64,139.393,97.301,188.314,97.301,236.01"/>
	<path fill="#FD9808" d="M149.889,92.92l-15.897-52.588l4.892,52.588c4.892,46.474,7.338,95.394,7.338,143.09v73.381h24.459V236.01
		C170.681,188.314,163.342,139.393,149.889,92.92"/>
	<path fill="#FFDD09" d="M156.005,309.391h-44.028L97.301,358.31v293.52l6.117,37.912c0,7.339,3.668,11.007,8.56,11.007h45.25
		c3.669,0,7.338-4.891,8.562-11.007l4.892-37.912V358.31L156.005,309.391z"/>
	<path fill="#FFFFFF" d="M103.416,689.74L97.3,651.829V358.31l14.676-48.919H97.301L72.842,358.31v293.52l9.784,37.912
		c1.223,7.339,7.338,11.007,13.453,11.007h14.676C107.085,700.748,103.416,697.08,103.416,689.74"/>
	<path fill="#FD9808" d="M170.681,309.391h-14.676l14.676,48.919v293.52l-6.116,37.912c0,7.339-3.669,11.007-8.56,11.007h14.676
		c6.116,0,12.229-4.891,14.676-11.007l9.784-37.912V358.31L170.681,309.391z"/>
	<g>
		<path fill="#FCC309" d="M348.016,749.67h-86.832c-9.785,0-18.345-8.562-18.345-18.346V717.87c0-9.783,8.56-18.345,18.345-18.345
			h86.832c9.784,0,18.345,8.562,18.345,18.345v13.454C366.36,742.331,357.8,749.67,348.016,749.67"/>
		<path fill="#FCC309" d="M310.104,154.069l-4.891-52.589l-4.892,52.589c-4.892,46.474-7.337,95.394-7.337,143.09v73.38h24.46
			v-73.38C317.441,249.463,314.995,200.543,310.104,154.069"/>
	</g>
	<path fill="#FFFFFF" d="M268.521,297.16v73.381h24.46V297.16c0-48.92,2.446-96.617,7.337-143.09l4.892-52.588l-15.898,52.588
		C275.859,200.543,268.521,249.463,268.521,297.16"/>
	<path fill="#FD9808" d="M321.112,154.069l-15.9-52.589l4.891,52.589c4.892,46.474,7.338,95.394,7.338,143.09v73.38H341.9v-73.38
		C341.9,249.463,334.562,200.543,321.112,154.069"/>
	<path fill="#FFDD09" d="M327.224,370.539h-44.026l-14.676,48.918v232.372l6.115,37.911c1.223,6.116,4.892,11.008,8.561,11.008
		h45.251c3.67,0,7.337-4.892,8.562-11.008l4.891-37.911V419.457L327.224,370.539z"/>
	<path fill="#FFFFFF" d="M274.636,689.74l-6.115-37.911V419.457l14.676-48.918h-14.676l-24.46,48.918v232.372l9.784,37.911
		c1.223,6.116,7.338,11.008,14.676,11.008h14.676C278.305,700.748,274.636,697.08,274.636,689.74"/>
	<path fill="#FD9808" d="M341.9,370.539h-14.676l14.676,48.918v232.372l-6.116,37.911c-1.223,6.116-4.891,11.008-8.561,11.008
		h14.676c6.116,0,12.229-4.892,14.676-11.008l9.784-37.911V419.457L341.9,370.539z"/>
	<g>
		<path fill="#FCC309" d="M519.234,749.67h-86.833c-9.783,0-18.344-8.562-18.344-18.346V717.87c0-9.783,8.561-18.345,18.344-18.345
			h86.833c9.784,0,18.344,8.562,18.344,18.345v13.454C537.58,742.331,529.02,749.67,519.234,749.67"/>
		<path fill="#FCC309" d="M481.322,202.988l-4.892-52.588l-4.891,52.589c-4.892,46.474-7.337,95.396-7.337,143.091v73.38h24.459
			v-73.38C488.66,298.383,486.214,249.463,481.322,202.988"/>
	</g>
	<path fill="#FFFFFF" d="M439.74,346.079v73.378h24.46v-73.378c0-48.92,2.446-96.617,7.337-143.091l4.892-52.589l-15.898,52.589
		C447.079,249.463,439.74,298.383,439.74,346.079"/>
	<path fill="#FD9808" d="M492.331,202.988l-15.9-52.588l4.892,52.589c4.892,46.474,7.338,95.396,7.338,143.091v73.38h24.46v-73.38
		C513.12,298.383,505.783,249.463,492.331,202.988"/>
	<path fill="#FFDD09" d="M498.445,419.457h-44.027l-14.676,48.922V651.83l6.117,37.912c1.222,6.116,4.89,11.007,8.561,11.007h45.251
		c3.669,0,7.335-4.891,8.559-11.007l4.893-37.912V468.379L498.445,419.457z"/>
	<path fill="#FFFFFF" d="M445.855,689.74l-6.115-37.911v-183.45l14.676-48.922H439.74l-24.46,48.922V651.83l9.784,37.912
		c1.224,6.116,7.337,11.007,14.676,11.007h14.676C449.524,700.748,445.855,697.08,445.855,689.74"/>
	<path fill="#FD9808" d="M513.12,419.457h-14.675l14.675,48.922V651.83l-6.117,37.912c-1.221,6.116-4.89,11.007-8.56,11.007h14.676
		c6.116,0,12.23-4.891,14.676-11.007l9.783-37.912V468.379L513.12,419.457z"/>
	<path fill="#AB6C34" d="M366.36,664.059H244.061c-7.338,0-12.229-4.892-12.229-12.229v-244.6c0-7.339,4.892-12.23,12.229-12.23
		H366.36c7.338,0,12.229,4.892,12.229,12.23v244.6C378.591,659.167,373.698,664.059,366.36,664.059z M256.29,639.598h97.84V419.457
		h-97.84V639.598z"/>
	<path fill="#AB6C34" d="M343.124,712.979h-74.603c-12.23,0-23.238-8.561-25.682-20.791l-11.008-36.691
		c-1.223-3.667,0-7.338,2.446-11.006c2.447-2.446,6.116-4.891,9.785-4.891h122.299c3.67,0,7.339,1.224,9.784,4.891
		c2.447,3.666,2.447,7.339,2.447,11.006l-9.786,37.913C366.36,705.642,355.353,712.979,343.124,712.979z M259.96,664.059
		l6.115,23.237c0,1.224,1.223,1.224,2.447,1.224h74.603c1.224,0,2.446-1.224,2.446-1.224l6.117-23.237H259.96z"/>
	<path fill="#AB6C34" d="M348.016,761.898h-86.832c-17.123,0-30.575-13.453-30.575-30.576V717.87
		c0-17.122,13.453-30.576,30.575-30.576h86.832c17.121,0,30.575,13.454,30.575,30.576v13.452
		C378.591,748.445,365.137,761.898,348.016,761.898z M262.406,712.979c-3.669,0-6.115,2.447-6.115,6.116v13.453
		c0,3.67,2.446,6.117,6.115,6.117h86.834c3.668,0,6.113-2.447,6.113-6.117v-13.453c0-3.669-2.445-6.116-6.113-6.116H262.406z"/>
	<path fill="#AB6C34" d="M366.36,419.457H244.061c-3.668,0-8.56-2.444-11.007-6.115c-2.447-3.668-2.447-8.56,0-12.228l24.46-48.92
		c2.448-3.669,6.116-7.338,11.007-7.338H341.9c4.892,0,8.562,2.446,11.008,7.338l24.459,48.92c2.444,3.669,1.223,8.56,0,12.228
		C376.145,417.013,370.029,419.457,366.36,419.457z M263.628,395h83.162l-12.229-24.46h-58.704L263.628,395z"/>
	<path fill="#AB6C34" d="M341.9,370.539h-73.379c-7.337,0-12.23-4.893-12.23-12.229v-73.381c0-7.338,4.893-12.229,12.23-12.229
		H341.9c7.34,0,12.229,4.892,12.229,12.229v73.381C354.131,365.648,349.24,370.539,341.9,370.539z M280.75,346.079h48.922v-48.92
		H280.75V346.079L280.75,346.079z"/>
	<path fill="#AB6C34" d="M341.9,297.16h-73.379c-7.337,0-12.23-4.891-12.23-12.228c0-50.144,7.338-99.064,22.014-146.759
		l14.677-52.589c2.446-4.893,7.337-8.562,12.229-8.562s9.785,3.669,12.229,8.562l14.677,52.589
		c14.674,47.695,22.012,97.84,22.012,146.759C354.131,292.267,349.24,297.16,341.9,297.16z M280.75,272.7h48.922
		c-1.225-42.805-7.339-86.832-20.793-128.415l-3.669-12.229l-3.67,13.453C289.312,187.09,281.974,229.895,280.75,272.7z"/>
	<path fill="#AB6C34" d="M195.14,664.059H72.842c-7.338,0-12.23-4.892-12.23-12.229V358.31c0-7.338,4.892-12.23,12.23-12.23H195.14
		c7.338,0,12.23,4.892,12.23,12.23v293.52C207.372,659.167,202.479,664.059,195.14,664.059z M85.072,639.598h97.84V370.539h-97.84
		V639.598L85.072,639.598z"/>
	<path fill="#AB6C34" d="M171.906,712.979H96.079c-12.229,0-23.237-8.561-25.682-20.791l-9.784-36.691c0-3.667,0-7.338,2.446-11.006
		c2.447-2.446,6.116-4.891,9.785-4.891h122.298c3.669,0,7.338,1.224,9.786,4.891c2.446,3.668,2.446,7.339,2.446,11.006
		l-9.784,37.913C195.14,705.642,184.134,712.979,171.906,712.979z M88.741,664.059l6.114,23.237c0,1.224,0,1.224,1.224,1.224h74.603
		c1.223,0,2.447-1.224,2.447-1.224l6.116-23.237H88.741z"/>
	<path fill="#AB6C34" d="M176.797,761.898H91.188c-17.122,0-30.575-13.453-30.575-29.351v-13.453
		c0-17.123,13.453-30.575,30.575-30.575h86.832c17.122,0,30.575,13.452,30.575,30.575v13.453
		C207.372,748.445,193.918,761.898,176.797,761.898z M91.187,712.979c-3.669,0-6.116,2.447-6.116,6.116v13.453
		c0,2.446,2.447,4.891,6.116,4.891h86.832c2.445,0,4.89-2.445,4.89-4.891v-13.453c0-3.669-2.446-6.116-6.115-6.116H91.187z"/>
	<path fill="#AB6C34" d="M195.14,370.539H72.842c-3.669,0-8.561-2.446-11.007-6.115c-2.446-3.669-2.446-8.561,0-12.23l24.46-48.92
		c2.446-3.669,6.115-6.115,11.006-6.115h73.38c4.893,0,8.561,2.447,11.007,7.337l24.459,48.92c2.448,3.669,1.224,8.561,0,12.23
		C203.704,369.317,198.811,370.539,195.14,370.539z M92.41,346.079h83.163l-12.23-24.46h-58.704L92.41,346.079z"/>
	<path fill="#AB6C34" d="M170.681,321.62H97.302c-7.337,0-12.228-4.891-12.228-12.229V236.01c0-7.338,4.891-12.228,12.228-12.228
		h73.38c7.338,0,12.229,4.89,12.229,12.228v73.381C182.911,316.729,178.02,321.62,170.681,321.62z M109.532,297.16h48.92v-48.92
		h-48.92V297.16z"/>
	<path fill="#AB6C34" d="M170.681,248.24H97.302c-7.337,0-12.228-4.891-12.228-12.229c0-48.92,7.338-99.063,22.012-146.759
		l14.676-52.589c2.445-4.893,7.337-8.563,12.229-8.563c4.891,0,9.784,3.669,12.229,8.562l14.675,52.589
		c14.676,47.697,22.013,97.841,22.013,146.76C182.911,243.35,178.02,248.24,170.681,248.24z M109.532,223.781h48.92
		c-1.224-42.805-8.56-85.611-20.791-127.192l-3.669-13.453l-3.67,13.453C118.094,138.17,110.754,180.976,109.532,223.781z"/>
	<path fill="#AB6C34" d="M537.58,664.059H415.282c-7.338,0-12.229-4.892-12.229-12.229V456.149c0-7.338,4.892-12.23,12.229-12.23
		H537.58c7.338,0,12.23,4.893,12.23,12.23v195.68C549.811,659.167,544.918,664.059,537.58,664.059z M427.511,639.598h97.842V468.379
		h-97.842V639.598L427.511,639.598z"/>
	<path fill="#AB6C34" d="M514.344,712.979H439.74c-12.229,0-23.237-8.561-25.683-20.791l-11.007-36.691
		c-1.223-3.667,0-7.338,2.446-11.006c2.446-3.67,6.116-4.891,9.783-4.891h122.299c3.67,0,7.338,1.224,9.785,4.891
		c2.446,3.668,2.446,7.339,2.446,11.006l-9.785,37.913C537.58,705.642,526.571,712.979,514.344,712.979z M431.181,664.059
		l6.115,23.237c0,1.224,1.224,1.224,2.446,1.224h74.603c1.223,0,2.445-1.224,2.445-1.224l6.118-23.237H431.181z"/>
	<path fill="#AB6C34" d="M519.234,761.898h-86.833c-17.121,0-30.576-13.453-30.576-30.576V717.87
		c0-17.122,13.455-30.576,30.576-30.576h86.833c17.122,0,30.576,13.454,30.576,30.576v13.452
		C549.811,748.445,536.356,761.898,519.234,761.898z M433.625,712.979c-3.67,0-6.116,2.447-6.116,6.116v13.453
		c0,3.67,2.446,6.117,6.116,6.117h86.832c3.669,0,6.114-2.447,6.114-6.117v-13.453c0-3.669-2.445-6.116-6.114-6.116H433.625z"/>
	<path fill="#AB6C34" d="M537.58,468.379H415.282c-3.669,0-8.562-2.446-11.007-6.115c-2.445-3.67-2.445-8.562,0-12.229
		l24.457-48.921c2.448-3.671,6.117-7.339,11.008-7.339h73.38c4.892,0,8.562,2.448,11.007,7.339l24.461,48.921
		c2.445,3.669,1.223,8.56,0,12.229S541.249,468.379,537.58,468.379z M434.85,443.919h83.162l-12.229-24.459h-58.704L434.85,443.919z
		"/>
	<path fill="#AB6C34" d="M513.12,419.457h-73.38c-7.339,0-12.229-4.889-12.229-12.227V333.85c0-7.337,4.891-12.229,12.229-12.229
		h73.38c7.339,0,12.23,4.893,12.23,12.229v73.381C525.351,414.568,520.459,419.457,513.12,419.457z M451.97,395h48.92v-48.92h-48.92
		V395z"/>
	<path fill="#AB6C34" d="M513.12,346.079h-73.38c-7.339,0-12.229-4.892-12.229-12.23c0-50.143,7.339-99.063,22.014-146.759
		l14.676-52.588c2.446-4.892,7.337-8.56,12.229-8.56s9.784,3.669,12.229,8.56l15.898,52.588
		c14.675,47.696,22.013,97.842,22.013,146.759C525.351,341.188,520.459,346.079,513.12,346.079z M451.97,321.62h48.92
		c-1.224-42.804-7.338-86.832-20.791-128.414l-3.67-12.23l-3.669,13.453C460.531,236.01,453.193,278.815,451.97,321.62z"/>
</g>
</svg>
