<?xml version="1.0" encoding="utf-8"?>
<!-- Generator: Adobe Illustrator 15.0.0, SVG Export Plug-In . SVG Version: 6.00 Build 0)  -->
<!DOCTYPE svg PUBLIC "-//W3C//DTD SVG 1.1//EN" "http://www.w3.org/Graphics/SVG/1.1/DTD/svg11.dtd">
<svg version="1.1" id="Layer_1" xmlns="http://www.w3.org/2000/svg" xmlns:xlink="http://www.w3.org/1999/xlink" x="0px" y="0px"
	 width="612px" height="792px" viewBox="0 0 612 792" enable-background="new 0 0 612 792" xml:space="preserve">
<g id="Layer_2_1_">
	<path fill="#FFFFFF" d="M306,760.467c-78.802,0-152.882-30.678-208.595-86.402C41.69,618.362,11,544.27,11,465.467
		c0-45.558,13.338-95.573,39.657-148.679c20.604-41.585,49.263-85.33,85.155-130.009c60.082-74.772,121.189-128.377,131.682-136.637
		L306,16.974l38.508,33.169c10.497,8.265,71.604,61.872,131.669,136.636c35.916,44.678,64.551,88.423,85.164,130.009
		C587.662,369.892,601,419.908,601,465.467c0,78.803-30.679,152.896-86.403,208.598C458.869,729.789,384.802,760.467,306,760.467z"
		/>
</g>
<title></title>
<g id="Layer_2">
	<path fill="#EE2D2B" d="M327.832,70.547L306,51.732l-21.832,18.815c-11.756,8.728-246.834,213.58-246.834,394.92
		c0,148.389,120.29,268.677,268.666,268.677c148.389,0,268.653-120.288,268.653-268.677
		C574.653,284.127,339.575,79.274,327.832,70.547z M380.891,615.593l-29.892-60.129c34.111-17.021,55.7-51.866,55.751-89.997h67.152
		C473.84,529.102,437.836,587.201,380.891,615.593z"/>
</g>
</svg>
