<?xml version="1.0" encoding="utf-8"?>
<!-- Generator: Adobe Illustrator 15.0.0, SVG Export Plug-In . SVG Version: 6.00 Build 0)  -->
<!DOCTYPE svg PUBLIC "-//W3C//DTD SVG 1.1//EN" "http://www.w3.org/Graphics/SVG/1.1/DTD/svg11.dtd">
<svg version="1.1" id="Layer_1" xmlns="http://www.w3.org/2000/svg" xmlns:xlink="http://www.w3.org/1999/xlink" x="0px" y="0px"
	 width="24px" height="24px" viewBox="0 0 24 24" enable-background="new 0 0 24 24" xml:space="preserve">
<path fill="#FFFFFF" d="M2,22v-2c0-2.757,2.243-5,5-5h10c2.757,0,5,2.243,5,5v2H2z"/>
<path fill="#FFFFFF" d="M4,22V10c0-6.223,5.141-8.602,7.858-8.99L12,0.99l0.142,0.021C14.859,1.398,20,3.777,20,10v12H4z"/>
<title></title>
<path d="M7,16h10c2.209,0,4,1.791,4,4v1l0,0H3l0,0v-1C3,17.791,4.791,16,7,16z"/>
<path d="M12,2c0,0-7,1-7,8v11h14V10C19,3,12,2,12,2z M17,12.305c0.008,0.928-0.738,1.687-1.666,1.695H14.41l-0.744,2h-3.333L9.59,14
	H8.667C7.738,13.992,6.992,13.233,7,12.305V9.66C6.979,7.108,9.031,5.021,11.583,5h0.833C14.969,5.021,17.021,7.108,17,9.66V12.305z
	"/>
<path d="M8.14,11.77L8.14,11.77c-0.19-0.456-0.19-0.97,0-1.427c0.176-0.441,0.866-0.661,1.499-0.702
	c0.594-0.085,1.145,0.328,1.23,0.921c0.007,0.052,0.011,0.104,0.011,0.156c0,0.688-0.646,1.097-1.322,1.204
	C8.84,12.034,8.351,12.058,8.14,11.77L8.14,11.77z"/>
<path d="M15.859,11.77L15.859,11.77c-0.21,0.289-0.699,0.265-1.418,0.152c-0.676-0.107-1.322-0.516-1.322-1.204
	c0-0.6,0.485-1.087,1.086-1.088c0.052,0,0.104,0.003,0.155,0.011c0.634,0.041,1.323,0.26,1.499,0.702
	C16.051,10.8,16.051,11.313,15.859,11.77z"/>
<path d="M11.146,12.965L11.146,12.965c0.129-0.363,0.304-0.707,0.52-1.025c0.106-0.174,0.333-0.23,0.508-0.124
	c0.051,0.031,0.093,0.073,0.124,0.124c0.216,0.318,0.391,0.662,0.521,1.025c0.053,0.196-0.063,0.399-0.26,0.453
	c-0.034,0.009-0.068,0.014-0.103,0.013c-0.362,0-0.275-0.42-0.461-0.417c-0.195,0.004-0.136,0.417-0.487,0.417
	c-0.204,0.003-0.372-0.159-0.375-0.363C11.132,13.033,11.136,12.998,11.146,12.965z"/>
<polygon points="18,8 6,8 7,7 10,4 14,4 17,6 "/>
</svg>
