<?xml version="1.0" encoding="utf-8"?>
<!-- Generator: Adobe Illustrator 15.0.0, SVG Export Plug-In . SVG Version: 6.00 Build 0)  -->
<!DOCTYPE svg PUBLIC "-//W3C//DTD SVG 1.1//EN" "http://www.w3.org/Graphics/SVG/1.1/DTD/svg11.dtd">
<svg version="1.1" id="Calque_1" xmlns="http://www.w3.org/2000/svg" xmlns:xlink="http://www.w3.org/1999/xlink" x="0px" y="0px"
	 width="512px" height="512px" viewBox="0 0 512 512" enable-background="new 0 0 512 512" xml:space="preserve">
<g>
	<path fill="#FFFFFF" d="M256.001,508.563c-4.736,0-9.472-1.675-13.256-5.024c-16.849-14.914-60.94-55.194-106.355-106.974
		c-27.894-31.819-51.764-62.835-70.953-92.189c-0.138-0.211-0.271-0.425-0.401-0.641c-23.103-38.439-51.911-96.613-57.289-134.399
		c-0.075-0.411-0.137-0.818-0.185-1.225c-1.031-6.744-1.56-13.75-1.56-20.762c0-79.354,67.379-143.912,150.2-143.912
		c37.247,0,72.29,12.837,99.792,36.356c27.504-23.52,62.551-36.356,99.802-36.356C438.619,3.438,506,67.997,506,147.35
		c0,7.042-0.551,14.19-1.636,21.249c-0.013,0.086-0.07,0.466-0.086,0.57c-5.324,37.774-34.18,96.063-57.313,134.562
		c-0.13,0.217-0.265,0.43-0.402,0.642c-19.182,29.348-43.052,60.364-70.947,92.188c-34.938,39.818-68.887,72.696-91.216,93.267
		c-5.128,4.743-10.232,9.364-15.144,13.712C265.473,506.889,260.736,508.563,256.001,508.563z"/>
</g>
<g>
	<path fill="#ED1C24" d="M429.822,293.433c-18.665,28.556-41.833,58.672-69.246,89.945c-34.753,39.608-68.827,72.487-89.727,91.741
		c-6.23,5.762-11.296,10.3-14.849,13.444c-15.473-13.696-59.465-53.753-104.575-105.186c-27.415-31.273-50.582-61.39-69.249-89.945
		h44.184c0.048,0,0.096-0.014,0.145-0.014c0.228,0,0.444-0.011,0.66-0.023c0.097-0.011,0.192-0.024,0.3-0.033
		c0.181-0.027,0.359-0.049,0.551-0.085c0.12-0.025,0.229-0.048,0.349-0.074c0.169-0.034,0.324-0.083,0.48-0.13
		c0.132-0.037,0.251-0.073,0.385-0.108c0.144-0.061,0.3-0.108,0.444-0.169c0.119-0.048,0.24-0.096,0.36-0.156
		c0.144-0.061,0.3-0.132,0.456-0.216c0.097-0.049,0.193-0.106,0.301-0.156c0.155-0.096,0.312-0.193,0.468-0.288
		c0.083-0.059,0.169-0.108,0.24-0.169c0.167-0.108,0.324-0.227,0.482-0.348c0.071-0.061,0.13-0.121,0.203-0.179
		c0.156-0.12,0.3-0.264,0.445-0.396c0.071-0.072,0.132-0.133,0.203-0.206c0.133-0.132,0.253-0.272,0.373-0.419
		c0.083-0.083,0.155-0.179,0.228-0.274c0.096-0.132,0.203-0.255,0.287-0.385c0.096-0.131,0.179-0.266,0.264-0.398
		c0.049-0.071,0.097-0.141,0.145-0.216l11.174-19.034v-0.015l7.287-12.398l30.74,54.747c1.729,3.086,5.114,4.861,8.655,4.559
		c3.53-0.31,6.542-2.674,7.706-6.024l41.893-120.922l30.786,156.922c0.806,4.092,4.313,7.094,8.478,7.261
		c0.12,0.015,0.241,0.015,0.36,0.015c4.021,0,7.576-2.679,8.667-6.567l26.959-95.884l24.009,37.621
		c1.2,1.882,2.976,3.167,4.956,3.768h0.014c1.418,0.433,2.928,0.517,4.406,0.217c0.586,0.121,1.188,0.179,1.813,0.179h77.793
		V293.433z"/>
	<path fill="#ED1C24" d="M486,147.35c0,6.086-0.482,12.22-1.403,18.209c-0.026,0.144-0.036,0.167-0.048,0.3l-0.025,0.143
		l-0.013,0.084c0,0.036,0,0.06-0.01,0.096c-4.443,32.061-19.16,68.911-43.396,109.244H353.36l-32.158-50.403
		c-1.909-3.001-5.389-4.584-8.907-4.067c-3.504,0.514-6.386,3.048-7.346,6.468l-22.184,78.862l-11.476-58.48v-0.025l-11.056-56.308
		l-7.404-37.763c-0.781-3.996-4.153-6.974-8.211-7.25c-4.056-0.274-7.801,2.184-9.133,6.026l-4.287,12.376l-22.602,65.251
		l-19.373,55.899l-28.605-50.955c-1.585-2.809-4.538-4.563-7.766-4.597h-0.083c-3.194,0-6.146,1.692-7.767,4.441l-2.749,4.669
		l-21.042,35.854H70.893c-24.233-40.318-38.951-77.17-43.391-109.231c-0.012-0.012-0.012-0.037-0.012-0.061
		c0-0.012-0.023-0.132-0.023-0.144v-0.014c-0.012-0.059-0.024-0.131-0.037-0.191c0-0.072-0.013-0.155-0.024-0.227
		c-0.936-5.978-1.403-12.111-1.403-18.209c0-68.323,58.408-123.912,130.2-123.912c35.543,0,68.745,13.384,93.484,37.691
		c0.083,0.083,0.18,0.157,0.264,0.228c0.132,0.107,0.252,0.227,0.372,0.335c0.108,0.084,0.229,0.171,0.337,0.252
		c0.133,0.097,0.264,0.193,0.396,0.276c0.12,0.083,0.239,0.145,0.36,0.217c0.132,0.083,0.264,0.169,0.396,0.24
		c0.133,0.061,0.264,0.119,0.384,0.18c0.145,0.061,0.276,0.132,0.42,0.191l0.397,0.144l0.432,0.144
		c0.132,0.036,0.264,0.074,0.408,0.097c0.145,0.036,0.289,0.072,0.433,0.106c0.133,0.026,0.275,0.036,0.409,0.061
		c0.156,0.025,0.3,0.047,0.444,0.061c0.144,0.011,0.275,0.011,0.409,0.023c0.157,0.011,0.313,0.025,0.456,0.025
		c0.131,0,0.265-0.015,0.396-0.025c0.156,0,0.312-0.012,0.469-0.023c0.133-0.014,0.265-0.037,0.396-0.049
		c0.154-0.025,0.313-0.048,0.471-0.074c0.117-0.024,0.25-0.059,0.382-0.097c0.141-0.035,0.299-0.072,0.454-0.106
		c0.123-0.049,0.253-0.097,0.375-0.132c0.154-0.048,0.3-0.096,0.443-0.157c0.13-0.059,0.253-0.12,0.385-0.179
		c0.131-0.059,0.273-0.12,0.418-0.191c0.119-0.072,0.255-0.144,0.372-0.228c0.132-0.071,0.265-0.144,0.386-0.227
		c0.131-0.083,0.252-0.18,0.372-0.264c0.119-0.096,0.239-0.18,0.362-0.276c0.117-0.097,0.224-0.204,0.345-0.299
		c0.098-0.085,0.193-0.169,0.275-0.252c24.74-24.307,57.941-37.691,93.494-37.691C427.591,23.438,486,79.027,486,147.35z"/>
	<path opacity="0.3" enable-background="new    " d="M270.848,475.118c-6.23,5.762-11.295,10.3-14.848,13.444
		c-15.474-13.696-59.465-53.753-104.575-105.186c-27.417-31.273-50.582-61.39-69.249-89.947h44.185c0.048,0,0.096-0.013,0.145-0.013
		c0.228,0,0.442-0.011,0.66-0.024c0.097-0.014,0.192-0.023,0.3-0.032c0.178-0.025,0.359-0.05,0.551-0.084
		c0.12-0.028,0.228-0.051,0.349-0.075c0.169-0.034,0.324-0.083,0.479-0.131c0.132-0.037,0.251-0.072,0.384-0.107
		c0.144-0.061,0.301-0.108,0.444-0.171c0.119-0.046,0.239-0.095,0.36-0.156c0.144-0.06,0.301-0.13,0.456-0.215
		c0.097-0.049,0.192-0.107,0.3-0.157c0.157-0.095,0.313-0.193,0.469-0.287c0.083-0.061,0.169-0.108,0.239-0.169
		c0.168-0.11,0.325-0.228,0.481-0.349c0.071-0.06,0.131-0.121,0.204-0.179c0.156-0.12,0.301-0.263,0.445-0.396
		c0.071-0.074,0.132-0.132,0.203-0.205c0.133-0.132,0.253-0.275,0.374-0.421c0.083-0.082,0.156-0.179,0.227-0.273
		c0.097-0.131,0.204-0.254,0.289-0.385c0.096-0.129,0.178-0.267,0.263-0.396c0.049-0.074,0.097-0.143,0.144-0.218l11.175-19.035
		C155.302,326.093,190.892,394.251,270.848,475.118z"/>
	<path opacity="0.3" enable-background="new    " d="M121.212,275.427H70.894c-24.234-40.318-38.952-77.17-43.392-109.231
		c-0.012-0.012-0.012-0.036-0.012-0.061c0-0.011-0.024-0.132-0.024-0.144v-0.012c-0.013-0.059-0.024-0.132-0.036-0.193
		c0-0.071-0.014-0.154-0.026-0.226C26.468,159.582,26,153.448,26,147.352C26,79.027,84.408,23.439,156.202,23.439
		c35.542,0,68.746,13.384,93.485,37.691c0.082,0.082,0.178,0.156,0.264,0.228c0.131,0.106,0.252,0.228,0.372,0.335
		c0.108,0.084,0.229,0.17,0.337,0.252c0.133,0.097,0.264,0.193,0.396,0.275c0.12,0.083,0.239,0.145,0.36,0.218
		c0.132,0.083,0.264,0.167,0.396,0.239c0.133,0.06,0.264,0.119,0.384,0.178c0.145,0.061,0.275,0.133,0.42,0.193l0.397,0.144
		l0.432,0.144c0.131,0.035,0.264,0.073,0.408,0.097c0.145,0.034,0.289,0.072,0.43,0.107c0.134,0.024,0.277,0.036,0.411,0.06
		c0.156,0.026,0.3,0.048,0.442,0.061c0.144,0.011,0.277,0.011,0.41,0.025c0.157,0.011,0.313,0.023,0.456,0.023
		c0.13,0,0.265-0.012,0.396-0.023c0.156,0,0.312-0.015,0.469-0.025c0,0-117.023,55.768-114.609,175.91L121.212,275.427z"/>
	<polygon opacity="0.3" enable-background="new    " points="272.372,346.825 235.593,249.068 199.691,310.825 241.584,189.902 	"/>
	<path opacity="0.3" enable-background="new    " d="M346.027,293.433l-26.41-7.155l-29.742,61.256l26.957-95.885l24.009,37.62
		c1.2,1.884,2.976,3.169,4.956,3.77h0.014L346.027,293.433z"/>
	<polygon opacity="0.3" enable-background="new    " points="183.33,312.289 145.368,270.072 152.59,257.544 	"/>
</g>
</svg>
