<?xml version="1.0" encoding="utf-8"?>
<!-- Generator: Adobe Illustrator 15.0.0, SVG Export Plug-In . SVG Version: 6.00 Build 0)  -->
<!DOCTYPE svg PUBLIC "-//W3C//DTD SVG 1.1//EN" "http://www.w3.org/Graphics/SVG/1.1/DTD/svg11.dtd">
<svg version="1.1" id="Layer_1" xmlns="http://www.w3.org/2000/svg" xmlns:xlink="http://www.w3.org/1999/xlink" x="0px" y="0px"
	 width="612px" height="792px" viewBox="0 0 612 792" enable-background="new 0 0 612 792" xml:space="preserve">
<title></title>
<g id="colour">
	<path fill="#E0E0E0" d="M481.139,419.897c-0.583-0.104-1.176-0.148-1.767-0.127c-4.415-0.505-8.706-0.883-12.869-1.261
		c-1.009-0.127-2.02-0.127-3.029-0.254c-3.658-0.251-7.317-0.504-10.851-0.629c-3.912-0.254-7.696-0.505-11.355-0.505
		c-2.397-0.127-4.668-0.127-6.939-0.127c-44.843-2.353-89.477,7.596-129.076,28.768c-36.969,17.791-75.073,36.085-174.876,27.379
		c-3.028-0.252-5.93-0.505-8.958-0.757c-1.767-0.252-3.532-0.378-5.299-0.631c21.204-56.063,65.875-100.043,122.262-120.369
		c1.274-0.467,2.127-1.672,2.145-3.028V171.713c0.018-1.725-1.367-3.137-3.092-3.154c-0.021,0-0.042,0-0.063,0
		c-19.163-0.073-34.639-15.667-34.566-34.83c0.073-19.06,15.506-34.493,34.566-34.566h151.409
		c19.164,0.073,34.64,15.667,34.566,34.83c-0.073,19.06-15.506,34.493-34.566,34.565c-1.725-0.017-3.138,1.367-3.154,3.092
		c0,0.021,0,0.041,0,0.062v176.644c0.018,1.356,0.871,2.561,2.145,3.028C424.885,364.673,457.327,388.479,481.139,419.897z"/>
	<path fill="#C9C8C7" d="M391.274,351.385c-1.243-0.491-2.062-1.691-2.065-3.028V171.713c-0.048-1.692,1.285-3.104,2.977-3.153
		c0.021,0,0.04-0.001,0.061-0.001c8.921-0.036,17.437-3.73,23.559-10.219c6.331-6.574,9.858-15.352,9.836-24.479
		c0.364-18.799-14.582-34.334-33.381-34.698c-0.004,0-0.009,0-0.014,0l-26.053-3.124c11.589,5.439,0,10.912,0,24.997
		c0,9.21,6.314-6.562,0,0c-6.314,6.562-3.633,0-12.499,0c-1.7,0-12.498-1.767-12.498,0v224.196c0.004,1.336,0.82,2.536,2.064,3.027
		c36.029,13.523,67.282,37.35,89.865,68.512c-0.561-0.104-1.131-0.147-1.701-0.126c-4.249-0.505,35.315,4.35,4.66,0.35
		c-2.169-0.284,4.372,0,6.678,0.125c3.523,0,7.166,0.253,10.932,0.504c3.399,0.127,6.921,0.378,10.442,0.632
		c0.972,0.127,1.943,0.127,2.914,0.253c4.009,0.378,8.138,0.756,12.389,1.262c0.568-0.021,1.139,0.022,1.699,0.126
		C458.557,388.734,427.304,364.908,391.274,351.385z"/>
	<path fill="#2A4B79" d="M524.416,550.234c0.176,116.72-94.303,211.482-211.023,211.657
		c-116.72,0.176-211.482-94.302-211.657-211.022c-0.001-0.211-0.001-0.423,0-0.635c-0.094-24.611,4.002-49.061,12.112-72.298
		c3.029,0.379,6.057,0.632,8.958,0.884c2.397,0.252,4.668,0.505,6.939,0.632c3.029,0.251,5.931,0.503,8.706,0.756
		c19.431,1.388,36.338,1.767,51.479,1.388c7.948-0.252,15.267-0.757,22.08-1.388c15.601-1.305,31.03-4.179,46.054-8.58
		c4.416-1.262,8.706-2.65,12.744-4.037c12.633-4.745,25.015-10.135,37.095-16.15c9.462-4.542,18.8-9.085,29.02-12.995
		c4.037-1.641,8.202-3.155,12.491-4.544h0.126c36.384-10.605,74.522-13.821,112.169-9.463c7.696,0.631,15.896,1.39,24.477,2.397
		C511.309,463.062,524.657,506.15,524.416,550.234z"/>
	<path fill="#10294B" d="M486.186,426.836c-8.58-1.008-16.781-1.767-24.478-2.398c-5.692-0.419-11.049-0.689-16.298-0.912
		c20.438,33.82,31.165,72.615,31.006,112.131c0.515,116.205-93.271,210.826-209.477,211.34c-13.089,0.058-26.155-1.105-39.028-3.475
		c106.61,47.174,231.276-1.008,278.451-107.617c11.938-26.98,18.09-56.165,18.055-85.67
		C524.657,506.15,511.309,463.062,486.186,426.836z"/>
	<polygon fill="#616161" points="391.19,33.548 241.21,33.548 266.207,121.036 366.193,121.036 	"/>
	<polygon fill="#4C4C4C" points="359.057,33.548 341.196,96.04 259.07,96.04 266.207,121.036 366.193,121.036 391.19,33.548 	"/>
	<path fill="#96D8EA" d="M159.629,608.464c-5.769-0.003-10.783-3.959-12.132-9.568c-4.174-17.329-6.28-35.091-6.274-52.916
		c-0.002-8.816,0.483-17.626,1.453-26.389c0.772-6.861,6.96-11.798,13.821-11.025c6.852,0.771,11.786,6.942,11.029,13.797
		c-0.872,7.841-1.308,15.726-1.306,23.617c-0.003,15.851,1.865,31.646,5.566,47.058c1.621,6.706-2.501,13.457-9.207,15.077
		C161.613,608.348,160.623,608.465,159.629,608.464L159.629,608.464z"/>
	<path fill="#96D8EA" d="M216.213,683.46c-3.059,0.005-6.014-1.116-8.3-3.149c-9.201-8.11-17.687-16.998-25.362-26.564
		c-4.308-5.392-3.427-13.254,1.964-17.562c5.392-4.307,13.254-3.427,17.562,1.965c0.009,0.012,0.018,0.022,0.027,0.035
		c6.784,8.438,14.281,16.276,22.41,23.428c5.163,4.585,5.63,12.485,1.046,17.647C223.188,681.933,219.786,683.46,216.213,683.46z"/>
</g>
<g id="Layer_1_1_">
	<path fill="#5C92CD" d="M403.688,337.405V181.951c26.736-6.904,42.813-34.175,35.908-60.911
		c-5.701-22.072-25.61-37.493-48.405-37.495h-1.28l13.303-46.558c1.896-6.638-1.947-13.556-8.585-15.452
		c-1.117-0.32-2.275-0.482-3.438-0.481H241.21c-6.903-0.002-12.501,5.591-12.503,12.495c0,1.163,0.162,2.321,0.481,3.439
		l13.303,46.558h-1.28c-27.613,0.002-49.996,22.388-49.994,50c0.002,22.796,15.423,42.705,37.495,48.406v155.46
		C144.307,371.992,89.735,454.782,91.23,545.983c0,124.248,100.722,224.971,224.97,224.971c124.247,0,224.97-100.723,224.97-224.971
		l0,0C542.679,454.776,488.103,371.977,403.688,337.405z M374.615,46.05l-17.844,62.492h-81.142L257.785,46.05H374.615z
		 M245.445,357.771c4.958-1.785,8.264-6.49,8.264-11.76V171.034c0.002-6.901-5.591-12.497-12.492-12.499c-0.002,0-0.004,0-0.007,0
		c-13.805,0-24.997-11.191-24.997-24.997s11.191-24.997,24.997-24.997h8.422l4.552,15.934c1.539,5.364,6.443,9.061,12.022,9.063
		h99.987c5.58-0.001,10.484-3.699,12.022-9.063l4.553-15.934h8.422c13.806,0,24.996,11.191,24.996,24.997
		s-11.19,24.997-24.996,24.997c-6.9-0.001-12.497,5.591-12.499,12.492c0,0.002,0,0.004,0,0.006V346.01
		c-0.001,5.274,3.312,9.98,8.275,11.76c28.042,10.04,53.377,26.441,74.017,47.916c-85.237-5.733-121.552,11.543-156.66,28.393
		c-37.231,17.882-72.651,34.755-169.736,26.162C156.08,412.438,196.103,375.442,245.445,357.771L245.445,357.771z M316.2,745.957
		c-110.39-0.126-199.847-89.583-199.974-199.974c-0.039-20.848,3.026-41.586,9.094-61.531c21.415,2.095,40.356,3.099,57.011,3.099
		c46.219,1.509,92.023-9.159,132.818-30.936c36.712-17.622,71.648-34.219,167.434-23.946
		c22.138,33.627,33.826,73.056,33.591,113.314C516.047,656.374,426.59,745.831,316.2,745.957z"/>
</g>
</svg>
