<?xml version="1.0" encoding="utf-8"?>
<!-- Generator: Adobe Illustrator 15.0.0, SVG Export Plug-In . SVG Version: 6.00 Build 0)  -->
<!DOCTYPE svg PUBLIC "-//W3C//DTD SVG 1.1//EN" "http://www.w3.org/Graphics/SVG/1.1/DTD/svg11.dtd">
<svg version="1.1" id="Layer_1" xmlns="http://www.w3.org/2000/svg" xmlns:xlink="http://www.w3.org/1999/xlink" x="0px" y="0px"
	 width="512px" height="512px" viewBox="0 0 512 512" enable-background="new 0 0 512 512" xml:space="preserve">
<g id="surface1">
	<path fill="#FFFFFF" d="M297.99,469.05c-6.351,0-11.499-5.147-11.499-11.498V174.67c0-6.351,5.148-11.499,11.499-11.499
		c65.594,0,118.959,53.364,118.959,118.958v67.962C416.949,415.687,363.584,469.05,297.99,469.05z M325.75,411.561
		c26.342-5.405,43.891-29.512,43.891-62.295v-66.31c0-32.786-17.548-56.892-43.891-62.296V411.561z"/>
	<path fill="#FFFFFF" d="M194.38,455.598c-6.351,0-11.499-5.148-11.499-11.499V94.521c0-6.351,5.148-11.5,11.499-11.5h20.699
		c6.351,0,11.5,5.148,11.5,11.5v349.577c0,6.351-5.149,11.499-11.5,11.499H194.38z"/>
	<path fill="#FFFFFF" d="M204.73,132.918c-2.943,0-5.885-1.123-8.131-3.368l-36.28-36.272c-3.689-3.687-4.434-9.395-1.815-13.905
		l36.281-62.496c2.058-3.544,5.846-5.726,9.945-5.726c4.098,0,7.887,2.182,9.944,5.726l36.281,62.492
		c2.618,4.51,1.874,10.217-1.813,13.905L212.86,129.55C210.615,131.796,207.673,132.918,204.73,132.918z"/>
	<path fill="#FFFFFF" d="M287.641,455.598c-6.351,0-11.499-5.148-11.499-11.499V94.521c0-6.351,5.148-11.5,11.499-11.5h20.698
		c6.352,0,11.5,5.148,11.5,11.5v349.577c0,6.351-5.148,11.499-11.5,11.499H287.641z"/>
	<path fill="#FFFFFF" d="M297.99,132.918c-2.942,0-5.885-1.123-8.13-3.368l-36.281-36.272c-3.688-3.687-4.433-9.395-1.814-13.905
		l36.28-62.496c2.058-3.544,5.846-5.726,9.945-5.726c4.098,0,7.887,2.182,9.945,5.726l36.28,62.492
		c2.617,4.51,1.873,10.217-1.814,13.905L306.12,129.55C303.876,131.796,300.933,132.918,297.99,132.918z"/>
	<path fill="#FFFFFF" d="M241.011,455.598c-6.351,0-11.499-5.148-11.499-11.499V94.521c0-6.351,5.148-11.5,11.499-11.5h20.698
		c6.351,0,11.5,5.148,11.5,11.5v349.577c0,6.351-5.149,11.499-11.5,11.499H241.011z"/>
	<path fill="#FFFFFF" d="M251.13,455.389c-6.26-0.124-11.27-5.235-11.27-11.497V94.315c0-3.089,1.243-6.05,3.45-8.212
		c2.151-2.109,5.042-3.288,8.049-3.288c0.077,0,10.579,0.209,10.579,0.209c6.261,0.125,11.271,5.235,11.271,11.497v349.577
		c0,3.089-1.243,6.049-3.45,8.212c-2.151,2.108-5.043,3.287-8.05,3.287C261.633,455.598,251.13,455.389,251.13,455.389z"/>
	<path fill="#FFFFFF" d="M251.36,132.918c-2.943,0-5.885-1.123-8.131-3.368l-36.281-36.272c-3.688-3.687-4.433-9.395-1.814-13.905
		l36.28-62.496c2.058-3.544,5.847-5.726,9.946-5.726c4.098,0,7.887,2.182,9.944,5.726l36.281,62.492
		c2.618,4.51,1.873,10.217-1.815,13.905l-36.279,36.276C257.245,131.796,254.302,132.918,251.36,132.918z"/>
	<path fill="#FFFFFF" d="M251.357,132.919c-1.481,0-2.976-0.287-4.398-0.876c-4.296-1.78-7.098-5.973-7.098-10.624V22.651
		c0-5.199,3.489-9.752,8.509-11.104c0.993-0.268,1.999-0.396,2.991-0.396c4.024,0,7.85,2.12,9.944,5.727l36.281,62.492
		c2.618,4.51,1.873,10.217-1.815,13.905l-36.279,36.276C257.292,131.75,254.349,132.919,251.357,132.919z"/>
	<path fill="#FFFFFF" d="M178.915,496.648c-6.351,0-11.499-5.148-11.499-11.498V156.271c0-6.351,5.148-11.5,11.499-11.5h144.891
		c6.351,0,11.498,5.149,11.498,11.5V485.15c0,6.35-5.147,11.498-11.498,11.498H178.915z"/>
	<path fill="#FFFFFF" d="M251.36,496.648c-6.352,0-11.5-5.148-11.5-11.498V156.271c0-6.351,5.148-11.5,11.5-11.5h72.445
		c6.351,0,11.498,5.149,11.498,11.5V485.15c0,6.35-5.147,11.498-11.498,11.498H251.36z"/>
	<path fill="#FFFFFF" d="M178.915,231.017c-6.351,0-11.499-5.148-11.499-11.499v-22.999c0-6.351,5.148-11.499,11.499-11.499h144.891
		c6.351,0,11.498,5.148,11.498,11.499v22.999c0,6.351-5.147,11.499-11.498,11.499H178.915z"/>
	<path fill="#FFFFFF" d="M251.36,231.017c-6.352,0-11.5-5.148-11.5-11.499v-22.999c0-6.351,5.148-11.499,11.5-11.499h72.445
		c6.351,0,11.498,5.148,11.498,11.499v22.999c0,6.351-5.147,11.499-11.498,11.499H251.36z"/>
	<path fill="#FFFFFF" d="M178.915,268.964c-6.351,0-11.499-5.147-11.499-11.499v-22.999c0-6.351,5.148-11.5,11.499-11.5h144.891
		c6.351,0,11.498,5.148,11.498,11.5v22.999c0,6.352-5.147,11.499-11.498,11.499H178.915z"/>
	<path fill="#FFFFFF" d="M251.36,268.964c-6.352,0-11.5-5.147-11.5-11.499v-22.999c0-6.351,5.148-11.5,11.5-11.5h72.445
		c6.351,0,11.498,5.148,11.498,11.5v22.999c0,6.352-5.147,11.499-11.498,11.499H251.36z"/>
	<path fill="#FFFFFF" d="M178.915,431.104c-6.351,0-11.499-5.149-11.499-11.5v-22.998c0-6.351,5.148-11.5,11.499-11.5h144.891
		c6.351,0,11.498,5.149,11.498,11.5v22.998c0,6.351-5.147,11.5-11.498,11.5H178.915z"/>
	<path fill="#FFFFFF" d="M251.36,431.104c-6.352,0-11.5-5.149-11.5-11.5v-22.998c0-6.351,5.148-11.5,11.5-11.5h72.445
		c6.351,0,11.498,5.149,11.498,11.5v22.998c0,6.351-5.147,11.5-11.498,11.5H251.36z"/>
	<path fill="#FFFFFF" d="M178.915,469.05c-6.351,0-11.499-5.147-11.499-11.498v-22.999c0-6.35,5.148-11.499,11.499-11.499h144.891
		c6.351,0,11.498,5.149,11.498,11.499v22.999c0,6.351-5.147,11.498-11.498,11.498H178.915z"/>
	<path fill="#FFFFFF" d="M251.36,469.05c-6.352,0-11.5-5.147-11.5-11.498v-22.999c0-6.35,5.148-11.499,11.5-11.499h72.445
		c6.351,0,11.498,5.149,11.498,11.499v22.999c0,6.351-5.147,11.498-11.498,11.498H251.36z"/>
	<path fill="#8A4711" d="M297.99,174.67v282.881c59.347,0,107.46-48.112,107.46-107.46V282.13
		C405.45,222.783,357.337,174.67,297.99,174.67z M381.14,349.266c0,41.389-25.501,74.938-66.889,74.938V208.018h0.004
		c41.384,0,66.885,33.55,66.885,74.938V349.266z"/>
	<path fill="#FFFFFF" d="M194.38,444.099V94.521h20.699v349.577H194.38z"/>
	<path fill="#636978" d="M204.73,22.651l36.281,62.491l-36.281,36.277l-36.281-36.272L204.73,22.651z"/>
	<path fill="#F2F6FC" d="M287.641,444.099V94.521h20.698v349.577H287.641z"/>
	<path fill="#555A66" d="M297.99,22.651l36.281,62.491l-36.281,36.277l-36.281-36.272L297.99,22.651z"/>
	<path fill="#FFFFFF" d="M241.011,444.099V94.521h20.698v349.577H241.011z"/>
	<path fill="#F2F6FC" d="M261.709,94.521l-10.349-0.207v349.577l10.349,0.207V94.521z"/>
	<path fill="#414952" d="M251.36,22.651l36.28,62.491l-36.28,36.277l-36.281-36.272L251.36,22.651z"/>
	<path fill="#333940" d="M251.36,22.651v98.768l36.28-36.277L251.36,22.651z"/>
	<path fill="#AB5A1D" d="M178.915,156.271h144.891V485.15H178.915V156.271z"/>
	<path fill="#8A4711" d="M251.36,156.271h72.445V485.15H251.36V156.271z"/>
	<path fill="#8A4711" d="M178.915,196.519h144.891v22.999H178.915V196.519z"/>
	<path fill="#783F16" d="M251.36,196.519h72.445v22.999H251.36V196.519z"/>
	<path fill="#8A4711" d="M178.915,234.466h144.891v22.999H178.915V234.466z"/>
	<path fill="#783F16" d="M251.36,234.466h72.445v22.999H251.36V234.466z"/>
	<path fill="#8A4711" d="M178.915,396.605h144.891v22.998H178.915V396.605z"/>
	<path fill="#783F16" d="M251.36,396.605h72.445v22.998H251.36V396.605z"/>
	<path fill="#8A4711" d="M178.915,434.553h144.891v22.999H178.915V434.553z"/>
	<path fill="#783F16" d="M251.36,434.553h72.445v22.999H251.36V434.553z"/>
</g>
</svg>
